<svg xmlns="http://www.w3.org/2000/svg" viewBox="0 0 256 256" role="img" aria-label="WeChat QR code placeholder">
  <rect width="256" height="256" fill="#fff"/>
  <rect x="8" y="8" width="240" height="240" fill="#fff" stroke="#c8102e" stroke-width="4"/>
  <g fill="#111">
    <rect x="24" y="24" width="56" height="56"/>
    <rect x="176" y="24" width="56" height="56"/>
    <rect x="24" y="176" width="56" height="56"/>
  </g>
  <g fill="#fff">
    <rect x="34" y="34" width="36" height="36"/>
    <rect x="186" y="34" width="36" height="36"/>
    <rect x="34" y="186" width="36" height="36"/>
  </g>
  <g fill="#111">
    <rect x="44" y="44" width="16" height="16"/>
    <rect x="196" y="44" width="16" height="16"/>
    <rect x="44" y="196" width="16" height="16"/>
    <rect x="96" y="24" width="8" height="8"/>
    <rect x="112" y="24" width="24" height="8"/>
    <rect x="144" y="24" width="8" height="8"/>
    <rect x="96" y="40" width="16" height="8"/>
    <rect x="128" y="40" width="8" height="8"/>
    <rect x="152" y="40" width="8" height="8"/>
    <rect x="104" y="56" width="8" height="8"/>
    <rect x="120" y="56" width="32" height="8"/>
    <rect x="96" y="72" width="8" height="8"/>
    <rect x="136" y="72" width="24" height="8"/>
    <rect x="88" y="88" width="24" height="8"/>
    <rect x="128" y="88" width="8" height="8"/>
    <rect x="152" y="88" width="24" height="8"/>
    <rect x="192" y="88" width="8" height="8"/>
    <rect x="216" y="88" width="16" height="8"/>
    <rect x="24" y="96" width="8" height="8"/>
    <rect x="48" y="96" width="16" height="8"/>
    <rect x="80" y="96" width="24" height="8"/>
    <rect x="120" y="96" width="24" height="8"/>
    <rect x="168" y="96" width="8" height="8"/>
    <rect x="200" y="96" width="16" height="8"/>
    <rect x="40" y="112" width="8" height="8"/>
    <rect x="72" y="112" width="24" height="8"/>
    <rect x="112" y="112" width="8" height="8"/>
    <rect x="136" y="112" width="40" height="8"/>
    <rect x="192" y="112" width="8" height="8"/>
    <rect x="224" y="112" width="8" height="8"/>
    <rect x="24" y="128" width="24" height="8"/>
    <rect x="64" y="128" width="8" height="8"/>
    <rect x="88" y="128" width="16" height="8"/>
    <rect x="120" y="128" width="8" height="8"/>
    <rect x="152" y="128" width="24" height="8"/>
    <rect x="200" y="128" width="32" height="8"/>
    <rect x="40" y="144" width="16" height="8"/>
    <rect x="80" y="144" width="16" height="8"/>
    <rect x="112" y="144" width="32" height="8"/>
    <rect x="168" y="144" width="8" height="8"/>
    <rect x="192" y="144" width="16" height="8"/>
    <rect x="224" y="144" width="8" height="8"/>
    <rect x="88" y="160" width="8" height="8"/>
    <rect x="104" y="160" width="16" height="8"/>
    <rect x="136" y="160" width="16" height="8"/>
    <rect x="168" y="160" width="32" height="8"/>
    <rect x="216" y="160" width="16" height="8"/>
    <rect x="96" y="176" width="24" height="8"/>
    <rect x="136" y="176" width="8" height="8"/>
    <rect x="160" y="176" width="24" height="8"/>
    <rect x="200" y="176" width="8" height="8"/>
    <rect x="224" y="176" width="8" height="8"/>
    <rect x="96" y="192" width="8" height="8"/>
    <rect x="120" y="192" width="32" height="8"/>
    <rect x="176" y="192" width="16" height="8"/>
    <rect x="208" y="192" width="24" height="8"/>
    <rect x="88" y="208" width="24" height="8"/>
    <rect x="128" y="208" width="8" height="8"/>
    <rect x="152" y="208" width="8" height="8"/>
    <rect x="176" y="208" width="32" height="8"/>
    <rect x="96" y="224" width="8" height="8"/>
    <rect x="120" y="224" width="24" height="8"/>
    <rect x="160" y="224" width="16" height="8"/>
    <rect x="192" y="224" width="40" height="8"/>
  </g>
  <rect x="98" y="98" width="60" height="60" fill="#fff"/>
  <rect x="106" y="106" width="44" height="44" rx="8" fill="#c8102e"/>
  <path d="M127.8 116 141 123.5v15L127.8 146 115 138.5v-15Z" fill="#fff"/>
</svg>
